<?xml version="1.0" standalone="no"?>
<!DOCTYPE svg PUBLIC "-//W3C//DTD SVG 20010904//EN"
 "http://www.w3.org/TR/2001/REC-SVG-20010904/DTD/svg10.dtd">
<svg version="1.0" xmlns="http://www.w3.org/2000/svg"
 width="66.000000pt" height="66.000000pt" viewBox="0 0 66.000000 66.000000"
 preserveAspectRatio="xMidYMid meet">

<g transform="translate(0.000000,66.000000) scale(0.100000,-0.100000)"
fill="#000000" stroke="none">
<path d="M557 557 c-3 -9 -1 -17 5 -19 8 -3 7 -10 -1 -26 -6 -12 -9 -22 -7
-22 14 0 25 41 18 61 -7 18 -10 19 -15 6z"/>
<path d="M510 498 c0 -6 -7 -19 -15 -28 -14 -16 -14 -18 3 -22 15 -4 18 1 19
28 1 19 -1 34 -3 34 -2 0 -4 -5 -4 -12z"/>
<path d="M634 484 c-4 -10 -12 -22 -18 -26 -8 -5 -8 -8 0 -8 5 0 19 6 30 14
15 12 16 17 7 27 -10 10 -14 8 -19 -7z"/>
<path d="M579 438 c-11 -8 -10 -9 5 -4 14 5 17 2 12 -10 -5 -14 -4 -15 9 -4
18 15 18 17 2 23 -8 3 -20 1 -28 -5z"/>
<path d="M477 418 c-7 -5 -2 -8 15 -8 15 0 29 4 32 8 6 10 -31 10 -47 0z"/>
<path d="M547 399 c7 -7 15 -10 18 -7 3 3 -2 9 -12 12 -14 6 -15 5 -6 -5z"/>
<path d="M373 382 c12 -12 25 -18 35 -14 13 5 14 6 1 10 -7 3 -23 9 -34 15
-20 10 -20 9 -2 -11z"/>
<path d="M375 350 c3 -5 -1 -10 -7 -13 -7 -2 -1 -4 14 -3 33 1 37 11 8 19 -11
3 -18 1 -15 -3z"/>
<path d="M315 330 c3 -5 8 -10 11 -10 2 0 4 5 4 10 0 6 -5 10 -11 10 -5 0 -7
-4 -4 -10z"/>
<path d="M472 320 c10 -6 14 -18 11 -30 -5 -18 -25 -30 -22 -12 3 19 -2 25
-11 12 -8 -13 -10 -13 -10 1 0 9 -6 19 -14 22 -11 4 -9 -3 5 -28 14 -24 25
-32 37 -28 14 5 15 4 4 -8 -10 -11 -17 -11 -31 -2 -15 10 -22 9 -32 -3 -7 -8
-8 -14 -3 -12 5 2 9 -1 9 -7 0 -5 -5 -9 -11 -7 -7 1 -15 -2 -19 -8 -3 -5 -15
-10 -26 -10 -22 0 -25 -25 -5 -46 20 -19 26 -18 26 6 0 13 -5 18 -15 14 -8 -4
-15 -1 -15 5 0 6 10 11 23 11 23 0 142 69 119 70 -7 0 -10 5 -7 10 4 6 11 8
16 5 14 -9 11 8 -7 33 -8 12 -21 22 -27 22 -7 0 -5 -5 5 -10z"/>
<path d="M295 300 c-3 -6 1 -7 9 -4 18 7 21 14 7 14 -6 0 -13 -4 -16 -10z"/>
<path d="M347 303 c-4 -3 -7 -13 -7 -22 1 -13 3 -13 11 2 11 19 8 33 -4 20z"/>
<path d="M240 215 c0 -8 2 -15 4 -15 2 0 6 7 10 15 3 8 1 15 -4 15 -6 0 -10
-7 -10 -15z"/>
<path d="M209 143 c-13 -16 -12 -17 4 -4 9 7 17 15 17 17 0 8 -8 3 -21 -13z"/>
</g>
</svg>
